<?xml version="1.0" encoding="iso-8859-1"?>
<!-- Generator: Adobe Illustrator 19.0.0, SVG Export Plug-In . SVG Version: 6.00 Build 0)  -->
<svg version="1.1" id="Layer_1" xmlns="http://www.w3.org/2000/svg" xmlns:xlink="http://www.w3.org/1999/xlink" x="0px" y="0px"
	 viewBox="0 0 512 512" style="enable-background:new 0 0 512 512;" xml:space="preserve">
<g>
	<g>
		<circle cx="392.22" cy="231.128" r="9.395"/>
	</g>
</g>
<g>
	<g>
		<path d="M509.249,271.136L414.414,176.3c-13.758-13.758-30.955-22.817-49.649-26.4c-0.33-0.489-0.698-0.959-1.13-1.392
			c-22.555-22.555-54.721-32.427-86.045-26.416c-0.049,0.009-0.099,0.02-0.149,0.029l-172.498,36.022
			c-3.3,0.689-5.976,3.092-7.016,6.298c-1.039,3.206-0.282,6.724,1.985,9.217l15.542,17.096l-18.426,3.537L13.65,151.918
			c-2.912-1.48-6.385-1.34-9.169,0.368C1.697,153.995,0,157.029,0,160.294v132.697c0,3.045,1.475,5.901,3.959,7.662
			c1.61,1.143,3.514,1.732,5.436,1.732c1.044,0,2.093-0.174,3.104-0.527l83.529-29.243l24.887,6.556l-59.958,25.118
			c-3.629,1.521-5.926,5.14-5.755,9.072c0.17,3.93,2.771,7.338,6.517,8.54l117.188,37.578c0.932,0.299,1.901,0.449,2.869,0.449
			c0.938,0,1.878-0.141,2.784-0.422c32.177-9.986,70.888-34.717,81.899-41.996l15.011,3.954
			c-31.183,35.324-57.35,52.734-57.626,52.916c-3.835,2.512-5.297,7.425-3.461,11.624c1.523,3.482,4.945,5.631,8.604,5.631
			c0.755,0,1.521-0.092,2.282-0.282c65.255-16.314,153.375-62.331,157.095-64.282c1.691-0.869,4.974-1.837,6.772-2.351
			c3.289-0.939,6.559-1.972,9.803-3.098l100.747-34.97c3.057-1.06,5.351-3.62,6.076-6.773
			C512.486,276.728,511.536,273.424,509.249,271.136z M86.244,256.133L18.789,279.75V175.607l67.455,34.282V256.133z
			 M281.202,140.531c18.135-3.462,36.606-0.284,52.299,8.525c-1.719,0.235-3.433,0.501-5.134,0.828l-191.294,36.722l-12.207-13.427
			L281.202,140.531z M181.767,340.665l-90.069-28.881c0,0,58.428-24.537,58.854-24.804l91.075,23.99
			C225.989,320.488,202.308,333.782,181.767,340.665z M271.832,358.728c9.097-8.755,19.285-19.414,29.905-31.995
			c11.318,2.707,22.873,4.332,34.495,4.859C317.483,340.261,294.647,350.231,271.832,358.728z M398.778,303.874
			c-17.476,6.067-35.717,9.141-54.213,9.141c-12.49,0-24.951-1.422-37.114-4.224c-4.71-17.705-14.202-59.188-11.521-77.057
			c0.769-5.131-2.766-9.915-7.897-10.684c-5.131-0.763-9.915,2.765-10.684,7.897c-2.922,19.484,4.596,55.002,9.344,74.462
			l-55.028-14.496c-3.106-10.406-9.854-36.911-4.621-56.102c1.366-5.006-1.586-10.171-6.591-11.535
			c-5.006-1.363-10.171,1.586-11.535,6.591c-5.031,18.448-1.65,40.731,1.832,55.536l-105.713-27.847v-43.67l63.5-12.189
			c-2.33,10.905-4.687,27.13-3.155,43.977c0.444,4.878,4.54,8.545,9.345,8.544c0.284,0,0.572-0.013,0.861-0.039
			c5.167-0.47,8.975-5.04,8.506-10.206c-1.758-19.341,2.6-38.368,4.722-46.169l58.245-11.181
			c-3.071,16.134-6.912,42.881-3.367,62.377c0.826,4.536,4.779,7.715,9.232,7.715c0.558,0,1.124-0.049,1.691-0.153
			c5.105-0.929,8.49-5.819,7.563-10.923c-3.583-19.708,2.15-50.346,4.841-62.848l53.788-10.326
			c-4.584,20.65-12.151,60.819-7.101,82.023c1.028,4.316,4.88,7.221,9.13,7.221c0.72,0,1.453-0.083,2.184-0.258
			c5.047-1.201,8.165-6.267,6.962-11.315c-4.32-18.147,4.124-61.063,8.866-80.962c1.878-0.137,3.758-0.229,5.636-0.229
			c20.641,0,40.049,8.039,54.647,22.637l84.233,84.235L398.778,303.874z"/>
	</g>
</g>
<g>
</g>
<g>
</g>
<g>
</g>
<g>
</g>
<g>
</g>
<g>
</g>
<g>
</g>
<g>
</g>
<g>
</g>
<g>
</g>
<g>
</g>
<g>
</g>
<g>
</g>
<g>
</g>
<g>
</g>
</svg>
